<mxfile host="app.diagrams.net" modified="2021-05-23T23:55:14.256Z" agent="5.0 (Macintosh; Intel Mac OS X 10_15_7) AppleWebKit/537.36 (KHTML, like Gecko) Chrome/90.0.4430.212 Safari/537.36" etag="oWKf423oDV2D6m5h5p1i" version="14.6.13" type="github">
  <diagram name="Page-1" id="03018318-947c-dd8e-b7a3-06fadd420f32">
    <mxGraphModel dx="1577" dy="1023" grid="1" gridSize="10" guides="1" tooltips="1" connect="1" arrows="1" fold="1" page="1" pageScale="1" pageWidth="1100" pageHeight="850" background="#ffffff" math="0" shadow="0">
      <root>
        <mxCell id="0" />
        <mxCell id="1" parent="0" />
        <mxCell id="frh3IOdNLe9oZiR7mCp4-10" value="" style="rounded=0;whiteSpace=wrap;html=1;fontSize=66;direction=south;" vertex="1" parent="1">
          <mxGeometry x="40" y="40" width="190" height="330" as="geometry" />
        </mxCell>
        <mxCell id="677b7b8949515195-1" value="" style="whiteSpace=wrap;html=1;rounded=0;shadow=0;labelBackgroundColor=none;strokeColor=#000000;strokeWidth=1;fillColor=none;fontFamily=Verdana;fontSize=12;fontColor=#000000;align=center;comic=1;" parent="1" vertex="1">
          <mxGeometry x="20" y="20" width="1350" height="2360" as="geometry" />
        </mxCell>
        <mxCell id="677b7b8949515195-9" value="" style="line;strokeWidth=1;html=1;rounded=0;shadow=0;labelBackgroundColor=none;fillColor=none;fontFamily=Verdana;fontSize=14;fontColor=#000000;align=center;comic=1;verticalAlign=bottom;" parent="1" vertex="1">
          <mxGeometry x="150" y="415" width="1060" height="20" as="geometry" />
        </mxCell>
        <mxCell id="frh3IOdNLe9oZiR7mCp4-1" value="" style="ellipse;whiteSpace=wrap;html=1;aspect=fixed;" vertex="1" parent="1">
          <mxGeometry x="1080" y="70" width="230" height="230" as="geometry" />
        </mxCell>
        <mxCell id="frh3IOdNLe9oZiR7mCp4-2" value="Bio" style="text;html=1;strokeColor=none;fillColor=none;align=center;verticalAlign=middle;whiteSpace=wrap;rounded=0;fontSize=22;" vertex="1" parent="1">
          <mxGeometry x="80" y="70" width="40" height="20" as="geometry" />
        </mxCell>
        <mxCell id="frh3IOdNLe9oZiR7mCp4-3" value="Projects" style="text;html=1;strokeColor=none;fillColor=none;align=center;verticalAlign=middle;whiteSpace=wrap;rounded=0;fontSize=22;" vertex="1" parent="1">
          <mxGeometry x="100" y="140" width="40" height="20" as="geometry" />
        </mxCell>
        <mxCell id="frh3IOdNLe9oZiR7mCp4-4" value="References" style="text;html=1;strokeColor=none;fillColor=none;align=center;verticalAlign=middle;whiteSpace=wrap;rounded=0;fontSize=22;" vertex="1" parent="1">
          <mxGeometry x="40" y="220" width="190" height="20" as="geometry" />
        </mxCell>
        <mxCell id="frh3IOdNLe9oZiR7mCp4-5" value="External links" style="text;html=1;strokeColor=none;fillColor=none;align=center;verticalAlign=middle;whiteSpace=wrap;rounded=0;fontSize=22;" vertex="1" parent="1">
          <mxGeometry x="40" y="300" width="200" height="20" as="geometry" />
        </mxCell>
        <mxCell id="frh3IOdNLe9oZiR7mCp4-6" value="Portforlio" style="text;html=1;strokeColor=none;fillColor=none;align=center;verticalAlign=middle;whiteSpace=wrap;rounded=0;fontSize=66;" vertex="1" parent="1">
          <mxGeometry x="650" y="175" width="40" height="20" as="geometry" />
        </mxCell>
        <mxCell id="frh3IOdNLe9oZiR7mCp4-11" value="" style="line;strokeWidth=4;html=1;perimeter=backbonePerimeter;points=[];outlineConnect=0;fontSize=66;" vertex="1" parent="1">
          <mxGeometry x="560" y="225" width="220" height="10" as="geometry" />
        </mxCell>
      </root>
    </mxGraphModel>
  </diagram>
</mxfile>
